<svg width="33" height="34" viewBox="0 0 33 34" fill="none" xmlns="http://www.w3.org/2000/svg">
<path d="M29.0262 8.01095V1.87485C29.0262 1.17071 28.767 0.567162 28.2487 0.265387C27.7304 -0.0363881 27.1257 -0.13698 26.6073 0.265387C21.6832 3.48432 16.4136 5.29497 10.7984 5.79793H5.70157C4.31937 5.79793 3.28272 6.90444 3.10995 8.31272H2.0733C0.950262 8.31272 0 9.41923 0 10.7269V16.0583C0 17.366 0.950262 18.4725 2.0733 18.4725H3.10995C3.19633 19.4784 3.80105 20.3837 4.57853 20.7861L4.8377 32.6559C5.09686 33.3601 5.70157 33.863 6.39267 33.863H10.1073C10.6257 33.863 11.144 33.5612 11.4031 33.0583C11.7487 32.5553 11.8351 31.9518 11.8351 31.3482C11.8351 21.3896 11.8351 21.0879 11.8351 21.0879C17.0183 21.6914 21.9424 23.5021 26.5209 26.5198C26.7801 26.721 27.0393 26.721 27.2984 26.721C27.5576 26.721 27.9031 26.6204 28.1623 26.4192C28.6806 26.1175 28.9398 25.4133 28.9398 24.8098V18.6737C31.1859 18.3719 33 16.0583 33 13.3423C33 10.6263 31.2722 8.41332 29.0262 8.01095ZM3.10995 16.5612H2.0733C1.81414 16.5612 1.64136 16.3601 1.64136 16.0583V10.7269C1.64136 10.4251 1.81414 10.224 2.0733 10.224H3.10995V16.5612V16.5612ZM5.18325 19.076C4.8377 18.8749 4.66492 18.5731 4.66492 18.1707V8.71509C4.66492 8.11154 5.09686 7.70917 5.5288 7.70917H9.84817V19.1766H5.44241C5.35602 19.076 5.35602 19.076 5.18325 19.076ZM10.1073 32.0524H6.39267V20.9873H10.1937L10.1073 32.0524ZM27.3848 24.9104C27.3848 25.0109 27.2984 25.0109 27.3848 24.9104C22.4607 21.792 17.1047 19.8808 11.4895 19.2772V7.50799C17.1047 6.90444 22.4607 4.9932 27.2984 1.87485V24.9104H27.3848ZM29.0262 16.863V9.92219C30.4084 10.224 31.445 11.6323 31.445 13.3423C31.445 15.0524 30.4084 16.5612 29.0262 16.863Z" fill="#00005B"/>
<path d="M25.4843 22.2952C21.6833 19.881 17.6231 18.3721 13.3037 17.8691V8.81587C17.6231 8.31291 21.6833 6.90462 25.4843 4.38983" fill="#FFED00"/>
<path d="M29.0261 16.8633V9.92242C30.4083 10.2242 31.445 11.6325 31.445 13.3425C31.445 15.0526 30.4083 16.5615 29.0261 16.8633Z" fill="#F60068"/>
<path d="M6.99731 31.4491V21.4905H9.50255V31.4491" fill="#FFED00"/>
</svg>
